<svg xmlns="http://www.w3.org/2000/svg" width="1600" height="800" viewBox="0 0 1600 800" role="img" aria-labelledby="title desc" lang="en">
<title id="title">Lintel 0.1.0 Preview</title>
<desc id="desc">Keep your work. Know what changes. The terracotta tail extends from the last l. A fine ASCII forest, mountains and reflected lake surround Lintel's beam and a tiny Clawd.</desc>
<defs>
  <pattern id="ripples" width="4" height="5" patternUnits="userSpaceOnUse"><rect width="2" height="1" fill="white"/></pattern>
  <linearGradient id="fade" x2="0" y2="1"><stop stop-color="white"/><stop offset="1" stop-color="black"/></linearGradient>
  <mask id="water"><rect x="690" y="595" width="225" height="114" fill="url(#ripples)"/></mask>
  <mask id="reflection-fade"><rect x="690" y="595" width="225" height="114" fill="url(#fade)"/></mask>
</defs>
<rect width="1600" height="800" fill="#FAF9F5"/>
<image href="../../apps/site/assets/lintel-landscape.png" width="1600" height="800"/>
<g id="header-mark" transform="translate(473.4405035219512 105) scale(0.3463414634146341)"><rect x="0" y="0" width="650" height="110" rx="6" fill="#C16A47"/><rect x="80" y="110" width="106" height="300" rx="4" fill="#3D3D3A"/><rect x="468" y="110" width="96" height="300" rx="4" fill="#3D3D3A"/><rect x="588" y="364" width="102" height="46" rx="3" fill="#C16A47"/></g>
<g id="wordmark" transform="translate(742.4161132780488 135.812) scale(0.76)"><path class="wordmark-glyphs" d="m 0,146.3 v -10.07 h 2.28 q 2.85,0 5.89,-0.76 3.23,-0.95 5.32,-3.61 2.28,-2.66 2.28,-7.98 V 23.56 q 0,-5.13 -2.28,-7.6 Q 11.21,13.49 7.98,12.73 4.94,11.97 2.28,11.97 H 0 V 1.9 h 44.65 v 121.98 q 0,5.32 2.09,7.98 2.28,2.66 5.51,3.61 3.23,0.76 5.89,0.76 h 2.28 V 146.3 Z M 91.13987,27.36 q -6.84,0 -11.59,-3.23 -4.56,-3.42 -4.56,-10.45 0,-7.22 4.56,-10.45 4.75,-3.23 11.59,-3.23 6.65,0 11.4,3.23 4.94,3.23 4.94,10.45 0,7.03 -4.94,10.45 -4.75,3.23 -11.4,3.23 z M 61.879868,146.3 v -10.07 h 2.28 q 2.85,0 5.89,-0.76 3.230002,-0.95 5.320002,-3.61 2.28,-2.66 2.28,-7.98 V 66.12 q 0,-5.13 -2.28,-7.6 -2.28,-2.47 -5.510002,-3.23 -3.04,-0.76 -5.7,-0.76 h -2.28 V 44.46 h 44.650002 v 79.42 q 0,5.32 2.09,7.98 2.28,2.66 5.51,3.61 3.23,0.76 5.89,0.76 h 2.28 v 10.07 z m 62.449872,0 v -10.07 h 0.38 q 6.46,0 10.64,-2.28 4.18,-2.28 4.18,-10.83 V 66.88 q 0,-7.98 -3.8,-10.07 -3.61,-2.28 -9.88,-2.28 h -0.57 V 44.46 h 39.9 l 2.47,13.49 h 0.95 q 3.8,-7.22 8.17,-10.45 4.56,-3.42 9.69,-4.37 5.32,-1.14 11.21,-1.14 14.63,0 22.99,8.74 8.36,8.74 8.36,27.93 v 44.08 q 0,8.74 3.04,11.21 3.23,2.28 9.69,2.28 h 0.57 v 10.07 h -42.18 V 83.79 q 0,-12.35 -3.42,-19 -3.42,-6.65 -11.78,-6.65 -6.27,0 -9.88,4.18 -3.61,3.99 -5.13,10.83 -1.52,6.65 -1.52,14.44 v 36.29 q 0,7.98 3.61,10.26 3.8,2.09 10.07,2.09 h 0.57 v 10.07 z m 164.09996,1.9 q -12.73,0 -20.33,-6.65 -7.6,-6.65 -7.6,-23.37 v -60.8 h -14.25 v -9.69 q 6.08,0 10.83,-2.47 4.94,-2.47 7.79,-5.51 5.89,-6.27 8.74,-18.81 h 15.77 v 23.56 h 24.32 v 12.92 h -24.32 v 58.9 q 0,8.55 2.85,12.54 3.04,3.99 9.69,3.99 3.8,0 7.03,-0.38 3.42,-0.57 6.46,-1.33 v 12.35 q -3.04,1.33 -10.07,3.04 -6.84,1.71 -16.91,1.71 z m 83.92012,0 q -24.13,0 -36.67,-13.68 -12.54,-13.87 -12.54,-38.57 0,-26.79 12.35,-40.28 12.35,-13.68 34.77,-13.68 20.71,0 32.49,11.59 11.97,11.59 11.97,34.2 v 9.69 h -62.32 q 0.57,19 7.03,27.74 6.65,8.74 18.43,8.74 9.88,0 16.72,-4.37 6.84,-4.56 10.07,-11.02 5.13,2.85 5.13,9.31 0,8.17 -9.12,14.25 -9.12,6.08 -28.31,6.08 z m 13.3,-62.89 q 0,-14.63 -3.42,-22.8 -3.42,-8.17 -11.59,-8.17 -7.98,0 -12.73,7.98 -4.75,7.79 -5.13,22.99 z m 35.27987,60.99 v -10.07 h 2.28 q 2.85,0 5.89,-0.76 3.23,-0.95 5.32,-3.61 2.28,-2.66 2.28,-7.98 V 23.56 q 0,-5.13 -2.28,-7.6 -2.28,-2.47 -5.51,-3.23 -3.04,-0.76 -5.7,-0.76 h -2.28 V 1.9 h 44.65 v 121.98 q 0,5.32 2.09,7.98 2.28,2.66 5.51,3.61 3.23,0.76 5.89,0.76 h 2.28 v 10.07 z" fill="#3D3D3A"/><rect class="cursor" x="434.63364" y="130.75455" width="70.81818" height="15.54545" rx="0" fill="#C16A47"/></g>
<g id="preview" fill="#3D3D3A" text-anchor="middle" font-family="Menlo,Consolas,monospace">
  <path d="M550 272H674 M926 272H1050" stroke="#BEB9AF"/>
  <text x="800" y="277" font-size="17" letter-spacing="5">0.1.0 PREVIEW</text>
</g>
<g id="copy" fill="#3D3D3A" text-anchor="middle" font-family="Baskerville,Georgia,serif" font-weight="400" font-size="42">
  <text x="800" y="352">Keep your work.</text>
  <text x="800" y="398">Know what changes.</text>
</g>
<g id="island-mark" transform="translate(704.0731707317073 474) scale(0.2780487804878049)"><rect x="0" y="0" width="650" height="110" rx="6" fill="#C16A47"/><rect x="80" y="110" width="106" height="300" rx="4" fill="#3D3D3A"/><rect x="468" y="110" width="96" height="300" rx="4" fill="#3D3D3A"/><rect x="588" y="364" width="102" height="46" rx="3" fill="#C16A47"/></g>
<g mask="url(#reflection-fade)" opacity=".6"><g mask="url(#water)"><g transform="translate(704.0731707317073 702) scale(0.2780487804878049 -0.2780487804878049)"><rect x="0" y="0" width="650" height="110" rx="6" fill="#C16A47"/><rect x="80" y="110" width="106" height="300" rx="4" fill="#3D3D3A"/><rect x="468" y="110" width="96" height="300" rx="4" fill="#3D3D3A"/><rect x="588" y="364" width="102" height="46" rx="3" fill="#C16A47"/></g></g></g>
</svg>
